<svg xmlns="http://www.w3.org/2000/svg" width="133.5" height="106.5" viewBox="0 0 133.5 106.5">
  <g id="Nb-mark_white" transform="translate(0.25 0.25)">
    <g id="Group_5311" data-name="Group 5311">
      <rect id="Rectangle_3778" data-name="Rectangle 3778" width="133" height="106" fill="none" stroke="#fff" stroke-width="0.5"/>
      <g id="Group_5309" data-name="Group 5309" transform="translate(-0.25 -0.25)">
        <path id="Path_9224" data-name="Path 9224" d="M28.75,64.45c.1,3.6.7,4.8,1.6,5.1a6.877,6.877,0,0,0,2.4.3c.5,0,.8.1.8.4,0,.4-.4.5-1.1.5-3,0-4.8-.1-5.7-.1-.4,0-2.6.1-5,.1-.6,0-1,0-1-.5,0-.3.3-.4.7-.4a7.845,7.845,0,0,0,2.1-.2c1.2-.4,1.4-1.7,1.4-5.7l.5-27.2c0-.9.1-1.6.6-1.6s.9.6,1.7,1.4c.6.6,7.5,8.1,14.3,14.8,3.1,3.1,9.3,9.8,10.1,10.5h.2l-.5-20.7c0-2.8-.5-3.7-1.6-4.1a6.344,6.344,0,0,0-2.4-.3c-.6,0-.7-.1-.7-.4,0-.4.5-.4,1.2-.4,2.4,0,4.6.1,5.6.1.5,0,2.3-.1,4.5-.1.6,0,1.1,0,1.1.4,0,.3-.3.4-.8.4a7.084,7.084,0,0,0-1.4.1c-1.3.4-1.7,1.3-1.7,3.9l-.5,29c0,1-.2,1.4-.6,1.4a2.849,2.849,0,0,1-1.6-1c-2.9-2.8-8.8-8.8-13.6-13.5-5-5-10.1-10.7-10.9-11.6h-.1Z" fill="#fff"/>
      </g>
      <g id="Group_5310" data-name="Group 5310" transform="translate(-0.25 -0.25)">
        <path id="Path_9225" data-name="Path 9225" d="M86.85,49.35c0-7,0-8.3-.1-9.8-.1-1.6-.5-2.3-2-2.6a9.183,9.183,0,0,0-1.8-.1c-.5,0-.8-.1-.8-.4s.3-.4,1-.4c2.4,0,5.3.1,6.3.1,2.3,0,4-.1,5.6-.1,8.3,0,9.8,4.5,9.8,6.9,0,3.8-2.2,6-4.7,8.1,3.8,1.3,8.4,4.6,8.4,9.9,0,4.9-3.8,10-12.3,10-.6,0-1.9-.1-3.2-.1-1.4-.1-2.8-.1-3.5-.1h-2.6c-1.1,0-2.3.1-3.2.1-.6,0-.9-.1-.9-.5,0-.2.2-.4.7-.4a7.931,7.931,0,0,0,1.7-.2c.9-.2,1.2-1.2,1.3-2.5.2-1.9.2-5.6.2-9.8v-8.1Zm5.5.7c0,.4.1.5.3.5a11.617,11.617,0,0,0,2.2.1,4.65,4.65,0,0,0,3.3-.9,6.028,6.028,0,0,0,1.9-4.9c0-3.1-1.8-7.1-5.8-7.1a6.622,6.622,0,0,0-1.5.1c-.3.1-.4.3-.4.8Zm6.1,3.7a6.6,6.6,0,0,0-3.8-1.1h-2a.265.265,0,0,0-.3.3v10.9c0,3,.1,3.8,1.6,4.4a8.44,8.44,0,0,0,3.4.6c2.1,0,5.6-1.1,5.6-5.9A11.364,11.364,0,0,0,98.45,53.75Z" fill="#fff"/>
      </g>
      <line id="Line_2364" data-name="Line 2364" y2="67" transform="translate(70 19.1)" fill="none" stroke="#fff" stroke-width="0.5"/>
    </g>
  </g>
</svg>
