<svg id="Logo_Nb-standard_black" xmlns="http://www.w3.org/2000/svg" width="423.046" height="67.989" viewBox="0 0 423.046 67.989">
  <g id="Group_5252" data-name="Group 5252">
    <g id="Group_5251" data-name="Group 5251">
      <path id="Path_9095" data-name="Path 9095" d="M422.067,0H0V67.989H423.046V0ZM421.1,1.954V66.038H245.612V1.954ZM1.952,66.038V1.954H243.6V66.038Z" fill="#1a1818"/>
      <path id="Path_9096" data-name="Path 9096" d="M38.925,26.938l-.261,17.027c0,.607-.276.913-.619.913a1.7,1.7,0,0,1-1.08-.648c-1.834-1.749-5.317-5.331-8.348-8.333-3.181-3.151-6.361-6.728-6.886-7.277h-.17l.361,11.763c.059,2.277.455,3.072,1.221,3.186.59.094.868.138,1.356.208.317.038.458.176.472.355,0,.235-.267.393-.672.393-1.9,0-3.057-.085-3.606-.085-.258,0-1.628.085-3.142.085-.378,0-.64-.114-.64-.376,0-.179.182-.311.464-.352.408-.062.637-.085,1.065-.147.78-.114,1.124-1.05,1.153-3.588l.164-17.094c.006-.728.138-1,.472-1,.29,0,.607.349,1.1.883.343.378,4.818,5.076,9.075,9.307,1.989,1.981,5.812,6.068,6.308,6.531H36.9L36.592,26.6c-.056-2.268-.458-3.066-1.221-3.186-.59-.085-.868-.132-1.35-.2-.323-.041-.461-.179-.478-.361,0-.235.264-.39.672-.39,1.9,0,3.06.085,3.609.085.258,0,1.623-.085,3.142-.085.379,0,.64.114.64.378,0,.176-.182.308-.464.349-.411.062-.637.085-1.065.15C39.291,23.462,38.954,24.4,38.925,26.938Z" fill="#1a1818"/>
      <path id="Path_9097" data-name="Path 9097" d="M48.412,43.639c-.329.05-.557.079-1.039.147-.32.047-.458.185-.469.364,0,.235.258.393.672.393,1.89,0,3.157-.091,3.706-.091,1.708,0,4.184.179,8.626.179,1.094,0,1.353,0,1.552-.763a25.252,25.252,0,0,0,.367-3.371c0-.29-.109-.525-.337-.525-.2.012-.373.132-.425.452a2.693,2.693,0,0,1-1.353,2.267,7.084,7.084,0,0,1-2.682.379c-3,0-3.351-.434-3.415-2.447-.029-.848,0-3.53,0-4.521V33.8c0-.17.035-.29.179-.29.7,0,3.415.026,3.976.091,1.083.114,1.5.549,1.646,1.135a9.737,9.737,0,0,1,.161,1.191.37.37,0,0,0,.367.332c.267,0,.32-.39.32-.625,0-.205.056-1.511.114-2.1a20.448,20.448,0,0,1,.241-2.165.268.268,0,0,0-.27-.264c-.138,0-.343.208-.549.437a2.077,2.077,0,0,1-1.417.44c-.675.059-3.914.059-4.56.059-.173,0-.208-.114-.208-.323V24.344c0-.208.065-.293.208-.293.59,0,3.477.056,3.976.114,1.461.179,1.781.56,1.96,1.094a4.913,4.913,0,0,1,.217,1.215c.023.264.144.437.343.437a.36.36,0,0,0,.367-.346c.065-.349.12-1.846.15-2.136a9.934,9.934,0,0,1,.288-1.846.29.29,0,0,0-.252-.324.275.275,0,0,0-.041,0,1.668,1.668,0,0,0-.458.1,5.057,5.057,0,0,1-1.191.188c-.557.023-7.382.023-8.309.023-.546,0-1.714-.091-3.606-.091-.4,0-.669.156-.669.39.012.176.153.314.469.361.487.067.769.109,1.358.2.76.114,1.185.927,1.2,3.2.006.848.018,2.136.018,4.313v5.146c0,2.679,0,4.862-.144,6.088C49.379,43.208,49.048,43.536,48.412,43.639Z" fill="#1a1818"/>
      <path id="Path_9098" data-name="Path 9098" d="M117.527,43.639c-.323.05-.557.079-1.039.147-.314.047-.458.185-.469.364,0,.235.258.393.672.393,1.9,0,3.157-.091,3.706-.091,1.708,0,4.184.179,8.626.179,1.1,0,1.353,0,1.558-.763a26.32,26.32,0,0,0,.367-3.371c0-.29-.114-.525-.337-.525-.2.012-.373.132-.431.452a2.682,2.682,0,0,1-1.353,2.268,7.064,7.064,0,0,1-2.682.379c-3,0-3.351-.434-3.409-2.447-.029-.848,0-3.53,0-4.521V33.8c0-.17.029-.29.173-.29.7,0,3.421.026,3.976.091,1.089.114,1.5.549,1.652,1.135a9.947,9.947,0,0,1,.153,1.191.379.379,0,0,0,.373.332c.264,0,.317-.39.317-.625,0-.205.062-1.511.12-2.1a18.715,18.715,0,0,1,.241-2.165.268.268,0,0,0-.27-.264c-.144,0-.349.208-.555.437a2.06,2.06,0,0,1-1.411.44c-.675.059-3.92.059-4.563.059-.176,0-.205-.114-.205-.323V24.344c0-.208.059-.293.205-.293.587,0,3.474.056,3.973.114,1.467.179,1.781.56,1.966,1.094a5.514,5.514,0,0,1,.217,1.215c.018.264.138.437.343.437a.369.369,0,0,0,.367-.346c.059-.349.114-1.846.144-2.136a10.567,10.567,0,0,1,.288-1.846.286.286,0,0,0-.245-.323.258.258,0,0,0-.048,0,1.627,1.627,0,0,0-.452.1,5.057,5.057,0,0,1-1.191.188c-.557.023-7.388.023-8.309.023-.552,0-1.714-.091-3.612-.091-.408,0-.669.156-.669.39.015.176.153.314.475.361.481.067.76.109,1.353.2.76.114,1.185.927,1.209,3.2.006.848.018,2.136.018,4.313v5.146c0,2.679,0,4.862-.144,6.088C118.5,43.208,118.172,43.536,117.527,43.639Z" fill="#1a1818"/>
      <path id="Path_9099" data-name="Path 9099" d="M190.982,43.633c-.326.05-.552.085-1.039.153-.314.041-.458.179-.469.358,0,.235.258.393.672.393,1.9,0,3.157-.085,3.706-.085,1.708,0,4.184.179,8.62.179,1.106,0,1.358,0,1.558-.769a25.1,25.1,0,0,0,.373-3.371c0-.29-.114-.519-.343-.519-.194.012-.367.126-.425.446a2.682,2.682,0,0,1-1.353,2.268,7.067,7.067,0,0,1-2.682.384c-3,0-3.351-.44-3.409-2.453-.026-.848,0-3.53,0-4.521V33.8c0-.17.029-.285.173-.285.71,0,3.421.021,3.976.085,1.089.114,1.5.555,1.652,1.135a10.841,10.841,0,0,1,.156,1.191.376.376,0,0,0,.367.332c.267,0,.326-.39.326-.625,0-.2.053-1.505.109-2.1a19.113,19.113,0,0,1,.246-2.16.28.28,0,0,0-.276-.27c-.138,0-.343.208-.549.443a2.084,2.084,0,0,1-1.417.434c-.669.059-3.914.059-4.554.059-.179,0-.208-.114-.208-.323V24.338c0-.208.059-.293.208-.293.578,0,3.471.059,3.97.114,1.467.179,1.784.56,1.966,1.094a5.384,5.384,0,0,1,.217,1.221c.023.258.144.437.34.437a.375.375,0,0,0,.37-.352c.059-.349.117-1.846.15-2.136a10.5,10.5,0,0,1,.282-1.84.286.286,0,0,0-.245-.323.258.258,0,0,0-.048,0,1.5,1.5,0,0,0-.458.1,5.463,5.463,0,0,1-1.185.182c-.557.023-7.388.023-8.309.023-.552,0-1.714-.091-3.612-.091-.4,0-.669.156-.669.39.018.182.158.32.475.367.481.062.763.109,1.353.194.763.12,1.185.927,1.2,3.2.012.848.023,2.136.023,4.316v5.143c0,2.685,0,4.868-.15,6.088C191.95,43.2,191.625,43.536,190.982,43.633Z" fill="#1a1818"/>
      <path id="Path_9100" data-name="Path 9100" d="M87.551,26.542c.041-2.409.4-3.119,1.341-3.245.258-.035.449-.062.757-.1.337-.047.464-.173.464-.355,0-.264-.261-.378-.64-.378-1.52,0-2.884.085-3.148.085-.543,0-1.708-.085-3.6-.085-.408,0-.672.161-.672.4.018.176.156.308.475.361.367.05.66.091,1.056.153,1.065.161,1.341,1.171,1.391,3.263.006.848.012,8.424.012,8.424,0,5.3-1.74,8.189-5.581,8.189-4.4,0-5.724-3.119-5.724-8.218V30.942c0-4.436,0-5.141.056-6.077.059-1.018.367-1.461,1.074-1.57.349-.05.555-.073.868-.12.293-.047.443-.176.443-.384s-.241-.343-.678-.343c-1.047,0-2.887.109-3.585.109-.877,0-2.9-.109-4.442-.109-.44,0-.6.161-.6.367s.132.337.452.384c.4.062.71.114,1.009.15.962.126,1.4.669,1.467,1.731.062.933.053,1.426.053,5.862v4.263c0,4.228,1.106,6.393,2.6,7.734a9.2,9.2,0,0,0,6.311,1.983,9.141,9.141,0,0,0,6.039-2.08c2.453-2.086,2.787-5.54,2.787-8.785V30.942C87.537,28.98,87.543,27.387,87.551,26.542Z" fill="#1a1818"/>
      <path id="Path_9101" data-name="Path 9101" d="M100.042,24.3c0-.323.056-.437.258-.493a4.826,4.826,0,0,1,.968-.059c2.509,0,3.65,2.4,3.65,4.357a3.806,3.806,0,0,1-1.2,3.093,2.952,2.952,0,0,1-2.1.557,6.756,6.756,0,0,1-1.37-.091c-.12-.023-.205-.088-.205-.317Zm6.7,15.134a3.409,3.409,0,0,1-3.051,3.733,3.34,3.34,0,0,1-.49.014,5.272,5.272,0,0,1-2.145-.349c-.933-.384-1.018-.883-1.018-2.814v-6.76c0-.15.056-.208.17-.208.443,0,.734,0,1.262.029a4.256,4.256,0,0,1,2.429.7,6.69,6.69,0,0,1,2.848,5.655ZM96.219,40.491c0,2.338-.293,3.066-1.071,3.166-.343.038-.607.073-1.065.135-.323.041-.461.179-.478.358,0,.241.264.393.678.393,1.89,0,3.26-.1,3.806-.1.877,0,4.064.161,4.768.161,5.381,0,7.8-3.251,7.8-6.379,0-3.421-2.917-5.49-5.314-6.3,1.587-1.265,2.952-2.7,2.952-5.088,0-1.546-.927-4.384-6.206-4.384-.992,0-2.814.091-4.24.091-.552,0-2.074-.085-3.973-.085-.4,0-.669.161-.669.4.012.176.147.314.469.361.487.062.769.109,1.353.194.769.12,1.209.913,1.209,3.186,0,.848.006,2.133.006,4.328v5.105Z" fill="#1a1818"/>
      <path id="Path_9102" data-name="Path 9102" d="M143.514,24.376c0-.229.065-.349.264-.4a6.316,6.316,0,0,1,1.54-.12c1.725,0,4.46,1.2,4.46,5.334,0,2.394-.842,3.735-1.719,4.378a2.9,2.9,0,0,1-2.063.493,7.767,7.767,0,0,1-2.218-.293c-.2-.085-.264-.2-.264-.525Zm-3.73,11.681c0,4.439,0,5.146-.059,6.079-.056,1.021-.367,1.455-1.071,1.564-.349.059-.557.082-.871.12-.293.047-.434.185-.434.39s.235.337.669.337c1.05,0,2.849-.1,3.547-.1.877,0,2.8.1,4.345.1.434,0,.59-.153.59-.367s-.132-.337-.449-.384c-.4-.056-.716-.109-1.006-.147-.962-.126-1.4-.666-1.467-1.725-.065-.942-.065-6.317-.065-6.317,0-.17.091-.235.241-.235l2.532.065a.6.6,0,0,1,.522.2c.384.437,1.725,2.429,2.89,4.046,1.626,2.253,2.738,3.621,3.993,4.293a6.7,6.7,0,0,0,3.313.56h3.043c.349,0,.555-.056.555-.29,0-.15-.12-.241-.349-.241a4.6,4.6,0,0,1-.819-.088,5.79,5.79,0,0,1-3.266-1.981c-1.719-1.813-3.732-4.407-6.329-7.67,2.946-2.388,3.847-4.378,3.847-6.531a5.045,5.045,0,0,0-1.983-4,9.283,9.283,0,0,0-5.364-1.265c-.9,0-3.926.091-4.918.091-.549,0-2.124-.085-4.023-.085-.4,0-.669.158-.669.393.018.179.153.317.475.364.481.067.763.109,1.353.2.76.114,1.2.939,1.215,3.222.006.842.006,2.142.006,4.284Z" fill="#1a1818"/>
      <path id="Path_9103" data-name="Path 9103" d="M283.876,43.622c-.326.044-.549.079-1.036.15-.317.044-.461.182-.478.355,0,.241.264.393.678.393,1.9,0,3.157-.085,3.709-.085,1.708,0,4.181.179,8.623.179,1.1,0,1.353,0,1.552-.769a25.043,25.043,0,0,0,.367-3.368c0-.288-.109-.522-.337-.522-.2.018-.367.132-.423.446a2.728,2.728,0,0,1-1.353,2.277,7.144,7.144,0,0,1-2.682.376c-3,0-3.354-.434-3.415-2.45-.029-.845,0-3.527,0-4.519v-2.3c0-.17.032-.29.176-.29.7,0,3.415.026,3.979.085,1.089.12,1.5.555,1.643,1.141a10.988,10.988,0,0,1,.161,1.185.37.37,0,0,0,.367.332c.27,0,.32-.384.32-.619,0-.2.059-1.511.114-2.1a20.708,20.708,0,0,1,.241-2.165.268.268,0,0,0-.27-.264c-.135,0-.343.208-.549.437a2.038,2.038,0,0,1-1.414.434c-.678.065-3.914.065-4.563.065-.173,0-.205-.114-.205-.323V24.321c0-.2.062-.293.205-.293.59,0,3.477.065,3.976.12,1.467.173,1.778.557,1.966,1.089a5.165,5.165,0,0,1,.211,1.221c.023.264.144.437.346.437a.371.371,0,0,0,.367-.349c.056-.352.126-1.84.147-2.133a10.974,10.974,0,0,1,.288-1.846.286.286,0,0,0-.245-.323.258.258,0,0,0-.048,0,1.5,1.5,0,0,0-.458.1,5.162,5.162,0,0,1-1.191.188c-.552.023-7.382.023-8.309.023-.546,0-1.708-.1-3.606-.1-.4,0-.669.161-.669.4.012.176.156.314.475.361.481.067.763.109,1.353.2.763.114,1.185.93,1.2,3.2.006.842.023,2.136.023,4.31v5.152c0,2.676-.006,4.859-.15,6.085C284.85,43.191,284.513,43.519,283.876,43.622Z" fill="#1a1818"/>
      <path id="Path_9104" data-name="Path 9104" d="M265.476,24.315c0-.329.056-.443.261-.5a4.654,4.654,0,0,1,.965-.059c2.509,0,3.65,2.4,3.65,4.357a3.829,3.829,0,0,1-1.2,3.1,2.965,2.965,0,0,1-2.1.552,7.545,7.545,0,0,1-1.376-.085c-.114-.029-.2-.088-.2-.323Zm6.7,15.134a3.414,3.414,0,0,1-3.541,3.747,5.279,5.279,0,0,1-2.139-.355c-.939-.379-1.024-.877-1.024-2.808V33.267c0-.144.056-.2.17-.2.443,0,.739,0,1.262.029a4.208,4.208,0,0,1,2.429.7,6.683,6.683,0,0,1,2.848,5.653ZM261.654,40.5c-.006,2.344-.3,3.072-1.077,3.166-.34.044-.607.079-1.068.135-.314.041-.458.185-.469.361,0,.238.258.4.672.4,1.9,0,3.26-.1,3.811-.1.869,0,4.055.167,4.756.167,5.387,0,7.811-3.257,7.811-6.379,0-3.421-2.922-5.5-5.32-6.3,1.587-1.265,2.958-2.694,2.958-5.088,0-1.54-.933-4.378-6.212-4.378-.992,0-2.814.085-4.246.085-.552,0-2.069-.079-3.967-.079-.408,0-.669.156-.669.39.015.176.153.314.469.361.487.067.76.109,1.353.2.766.114,1.209.913,1.209,3.186,0,.848.012,2.127.012,4.322v5.111Z" fill="#1a1818"/>
      <path id="Path_9105" data-name="Path 9105" d="M182.467,36.016c.056-1.021.367-1.461,1.071-1.564.349-.059.6-.091.91-.138.293-.047.443-.179.443-.384s-.241-.343-.678-.343c-1.047,0-2.887.109-3.585.109-.877,0-2.9-.109-4.442-.109-.44,0-.6.161-.6.367s.132.337.452.384c.408.056.716.109,1.009.15.962.126,1.4.663,1.467,1.728.056.936.05,1.3.05,5.742a1.008,1.008,0,0,1-.558,1.056,6.978,6.978,0,0,1-2.579.32c-6.165,0-9.818-4.56-9.818-10.83,0-3.33,1.086-5.578,2.694-6.98a8.848,8.848,0,0,1,5.927-1.875,7.843,7.843,0,0,1,5.909,2.165,6.158,6.158,0,0,1,1.115,2.517c.065.223.138.493.467.493.29,0,.452-.258.452-.722a41.49,41.49,0,0,1,.205-4.859c0-.208-.062-.323-.4-.352-.654-.032-1.687-.17-2.306-.261a32.676,32.676,0,0,0-5.449-.546,14.689,14.689,0,0,0-7.869,1.9,11.054,11.054,0,0,0-5.076,9.53c0,8.048,6.649,11.422,13.8,11.422a18.466,18.466,0,0,0,7.015-1.3c.367-.173.373-.27.373-1.056Z" fill="#1a1818"/>
      <path id="Path_9106" data-name="Path 9106" d="M216.888,24.388c0-.235.053-.349.258-.411a6.367,6.367,0,0,1,1.546-.117c1.719,0,4.46,1.2,4.46,5.337,0,2.388-.848,3.729-1.719,4.372a2.939,2.939,0,0,1-2.074.493,7.52,7.52,0,0,1-2.212-.293c-.205-.085-.258-.2-.258-.519Zm-3.739,11.685c0,4.433,0,5.141-.059,6.074-.056,1.027-.367,1.461-1.071,1.57-.349.059-.557.073-.871.12-.293.047-.44.179-.44.384s.241.343.681.343c1.042,0,2.843-.109,3.541-.109.877,0,2.8.109,4.342.109.437,0,.593-.161.593-.367s-.126-.337-.449-.384c-.4-.056-.716-.114-1.006-.147-.965-.126-1.4-.672-1.473-1.731-.059-.936-.053-6.311-.053-6.311,0-.176.085-.235.229-.235l2.538.059a.6.6,0,0,1,.522.2c.384.434,1.725,2.435,2.893,4.046,1.623,2.253,2.729,3.571,3.984,4.24a6.692,6.692,0,0,0,3.336.619H233.3c.349,0,.543-.144.543-.384,0-.153-.126-.29-.367-.32-.258-.029-.663-.079-1-.12-.6-.073-1.467-.229-2.943-1.781-1.719-1.807-3.738-4.4-6.335-7.67,2.952-2.388,3.852-4.372,3.852-6.531a5.052,5.052,0,0,0-1.983-4,9.278,9.278,0,0,0-5.358-1.259c-.907,0-3.938.091-4.923.091-.549,0-2.124-.085-4.023-.085-.408,0-.669.153-.669.393.009.179.153.317.469.361.487.065.766.111,1.358.2.76.12,1.191.945,1.215,3.222.006.848.006,2.148.006,4.284Z" fill="#1a1818"/>
      <path id="Path_9107" data-name="Path 9107" d="M365.242,35.626c-.12,0-.155-.091-.12-.2l2.846-7.547c.035-.12.12-.264.208-.264s.17.114.217.264l2.732,7.576c.029.085,0,.176-.141.176Zm6.3,1.64a.28.28,0,0,1,.293.205l2.107,5.581c.15.352.035.581-.279.654a.392.392,0,0,0-.329.378c0,.282.311.373.833.384.921.018,1.843,0,2.72.012,1.364.018,2.535.044,3.181.044s.836-.246.836-.5c0-.167-.109-.329-.393-.364-.214-.026-.34-.032-.69-.079-.613-.073-1.467-.276-2.585-2.934-1.89-4.492-6.652-16.5-7.312-18.142-.27-.684-.59-.948-.921-.948-.349,0-.59.334-.918,1.182l-7.4,18.412c-.584,1.479-1.221,2.368-2.465,2.515-.229.029-.32.035-.654.088a.371.371,0,0,0-.355.367c0,.241.2.4.578.4,1.532,0,2.837-.091,3.166-.091.91,0,2.227.076,3.169.091.361.006.555-.141.555-.381,0-.179-.155-.358-.452-.4l-.534-.082c-.819-.147-1.077-.543-1.077-1.071a4.1,4.1,0,0,1,.337-1.438l1.423-3.656c.056-.179.114-.235.267-.235Z" fill="#1a1818"/>
      <path id="Path_9108" data-name="Path 9108" d="M404.8,26.938l-.258,17.027c0,.607-.27.913-.613.913a1.685,1.685,0,0,1-1.077-.648c-1.846-1.749-5.325-5.331-8.35-8.333-3.186-3.151-6.367-6.728-6.889-7.277h-.176l.367,11.763c.056,2.277.458,3.072,1.221,3.186.584.094.871.138,1.353.208.314.038.458.176.469.355,0,.235-.258.393-.666.393-1.9,0-3.057-.085-3.6-.085-.27,0-1.288.085-2.808.085-.458,0-.666-.141-.666-.4,0-.223.167-.343.431-.379.229-.029.411-.053.7-.085.848-.111,1.215-1.056,1.244-3.594l.161-17.094c.006-.728.138-1,.469-1,.3,0,.607.349,1.1.883.349.378,4.818,5.076,9.084,9.307,1.981,1.981,5.8,6.068,6.308,6.531h.182l-.308-12.086c-.059-2.268-.452-3.066-1.221-3.186-.59-.085-.871-.132-1.353-.2-.32-.041-.458-.179-.469-.361,0-.235.258-.39.663-.39,1.9,0,3.06.085,3.618.085.258,0,1.623-.085,3.134-.085.384,0,.643.114.643.378,0,.176-.185.308-.469.349-.408.062-.631.085-1.062.15C405.177,23.462,404.846,24.4,404.8,26.938Z" fill="#1a1818"/>
      <path id="Path_9109" data-name="Path 9109" d="M309.334,24.388c0-.235.056-.349.264-.411a6.318,6.318,0,0,1,1.54-.117c1.719,0,4.46,1.2,4.46,5.337,0,2.388-.845,3.729-1.719,4.372a2.906,2.906,0,0,1-2.069.493,7.521,7.521,0,0,1-2.212-.293c-.208-.085-.264-.2-.264-.519Zm15.6,19.346c-.6-.073-1.467-.229-2.946-1.781-1.725-1.807-3.735-4.4-6.332-7.67,2.946-2.388,3.852-4.372,3.852-6.531a5.052,5.052,0,0,0-1.983-4,9.3,9.3,0,0,0-5.364-1.259c-.9,0-3.932.091-4.923.091-.546,0-2.121-.085-4.017-.085-.408,0-.672.153-.672.393.012.179.155.317.469.361.487.065.763.111,1.358.2.757.12,1.194.945,1.215,3.222.006.848.006,2.148.006,4.284l.012,5.114c0,4.433,0,5.141-.062,6.074-.059,1.027-.373,1.461-1.071,1.57-.352.059-.557.073-.871.12-.293.047-.443.179-.443.384s.241.343.678.343c1.047,0,2.846-.109,3.547-.109.871,0,2.8.109,4.337.109.443,0,.6-.161.6-.367s-.132-.337-.446-.384c-.408-.056-.722-.114-1.015-.147-.962-.126-1.4-.672-1.467-1.731-.062-.936-.056-6.311-.056-6.311,0-.176.085-.235.235-.235l2.538.059a.6.6,0,0,1,.522.2c.384.434,1.725,2.435,2.887,4.046,1.628,2.253,2.74,3.571,4,4.24a6.626,6.626,0,0,0,3.327.619h2.735c.933,0,3.072-.109,3.627-.109,1.021,0,2.151.1,3.371.1.434,0,.675-.138.675-.4,0-.15-.073-.288-.572-.361l-1.112-.173c-.825-.144-.986-.557-.986-1.047a10.9,10.9,0,0,1,.073-1.238l1.374-11.381h.2c1.021,2.183,2.691,5.862,2.952,6.476.346.813,2.758,5.49,3.462,6.831.475.921.637,1.265.913,1.265.3,0,.32-.073.927-1.344l6.5-13.55h.2l1.659,12.707c.12.816.038,1.13-.185,1.221-.2.088-.367.179-.367.373,0,.276.276.373.939.431,1.171.085,4.923.176,5.651.176.408,0,.643-.158.643-.393a.406.406,0,0,0-.373-.414c-.361-.073-.631-.132-1.065-.223-.871-.191-1.329-.986-1.593-2.82l-2.649-17.966c-.085-.775-.525-.883-.789-.883s-.528.235-.734.7l-7.7,16.478-7.635-16.2c-.378-.757-.625-.992-1.071-.992-.308,0-.511.27-.578.769l-3.022,18.9c-.147.992-.249,1.989-1.253,2.165A7.691,7.691,0,0,1,324.934,43.734Z" fill="#1a1818"/>
    </g>
  </g>
</svg>
